<svg width="64" height="24" viewBox="0 0 64 24" fill="none" xmlns="http://www.w3.org/2000/svg">
<path fill-rule="evenodd" clip-rule="evenodd" d="M33.6238 8.1339C33.0953 7.6895 32.1933 7.4673 30.9173 7.4673H28.0393V16.3614H30.1913V13.5743H31.1553C32.3253 13.5743 33.1833 13.3167 33.7293 12.8011C34.3448 12.2234 34.6538 11.4543 34.6538 10.4943C34.6538 9.49891 34.3103 8.71212 33.6238 8.1339ZM31.1018 11.5613H30.1913V9.48073H31.0093C32.0043 9.48073 32.5018 9.82969 32.5018 10.5276C32.5018 11.2164 32.0348 11.5613 31.1018 11.5613Z" fill="#111111"/>
<path fill-rule="evenodd" clip-rule="evenodd" d="M38.3367 7.46714H36.0927V16.3612H40.9377V14.3478H38.3367V7.46714Z" fill="#111111"/>
<path fill-rule="evenodd" clip-rule="evenodd" d="M45.3338 7.46714L41.8088 16.3612H44.2248L44.6868 15.0679H47.7498L48.1723 16.3612H50.6153L47.1158 7.46714H45.3338ZM45.3073 13.2676L46.2318 10.2275L47.1423 13.2676H45.3073Z" fill="#111111"/>
<mask id="mask0_626:1059" style="mask-type:alpha" maskUnits="userSpaceOnUse" x="0" y="0" width="64" height="24">
<path d="M0.5 23.7367H63.5V0.000213623H0.5V23.7367Z" fill="white"/>
</mask>
<g mask="url(#mask0_626:1059)">
<path fill-rule="evenodd" clip-rule="evenodd" d="M51.7365 16.3612H53.981V7.46714H51.7365V16.3612Z" fill="#111111"/>
<path fill-rule="evenodd" clip-rule="evenodd" d="M62.6946 9.13405C62.3951 8.70732 62.0386 8.36544 61.6251 8.10738C60.9476 7.68066 60.0231 7.46704 58.8526 7.46704H55.8956V16.3611H59.3546C60.6041 16.3611 61.6076 15.9526 62.3646 15.1345C63.1216 14.3169 63.4996 13.2321 63.4996 11.8807C63.4996 10.8056 63.2311 9.89003 62.6946 9.13405ZM59.1036 14.3477H58.1401V9.48048H59.1171C59.8036 9.48048 60.3311 9.6951 60.7011 10.1238C61.0706 10.5526 61.2556 11.1606 61.2556 11.9474C61.2556 13.5477 60.5386 14.3477 59.1036 14.3477Z" fill="#111111"/>
<path fill-rule="evenodd" clip-rule="evenodd" d="M9.81866 0.000114441L2.54466 1.90497L0.540664 9.21939L3.04766 11.7934L0.499664 14.3249L2.38616 21.6717L9.62816 23.6952L12.1762 21.1631L14.6832 23.7366L21.9567 21.8318L23.9607 14.5163L21.4542 11.9434L24.0017 9.4118L22.1157 2.06506L14.8727 0.0415244L12.3257 2.57309L9.81866 0.000114441ZM5.35466 3.3119L9.18616 2.30796L10.8617 4.02799L8.41816 6.45603L5.35466 3.3119ZM13.7657 4.05122L15.4682 2.35947L19.2832 3.42553L16.1697 6.51916L13.7657 4.05122ZM2.83616 8.61895L3.89166 4.7663L6.95416 7.91043L4.51116 10.3385L2.83616 8.61895ZM17.6097 7.99729L20.7232 4.90316L21.7162 8.77348L20.0142 10.4652L17.6097 7.99729ZM9.85866 7.93417L12.3022 5.50613L14.7057 7.97406L12.2627 10.4021L9.85866 7.93417ZM5.95166 11.8166L8.39466 9.38857L10.7992 11.8565L8.35566 14.2845L5.95166 11.8166ZM13.7032 11.8802L16.1462 9.4522L18.5502 11.9201L16.1067 14.3482L13.7032 11.8802ZM2.78516 14.9633L4.48816 13.271L6.89166 15.7394L3.77916 18.8326L2.78516 14.9633ZM9.79566 15.7627L12.2392 13.3346L14.6432 15.8026L12.2002 18.2306L9.79566 15.7627ZM17.5467 15.8263L19.9902 13.3983L21.6657 15.1178L20.6102 18.9704L17.5467 15.8263ZM5.21866 20.3112L8.33166 17.2171L10.7362 19.685L9.03366 21.3773L5.21866 20.3112ZM13.6402 19.7087L16.0832 17.2807L19.1462 20.4248L15.3152 21.4283L13.6402 19.7087Z" fill="black"/>
</g>
</svg>
